<mxfile host="Electron" modified="2024-03-15T11:54:37.277Z" agent="5.0 (Windows NT 10.0; Win64; x64) AppleWebKit/537.36 (KHTML, like Gecko) draw.io/15.8.7 Chrome/91.0.4472.164 Electron/13.6.2 Safari/537.36" etag="0vgN8F7AJP3I4plf-1PB" compressed="false" version="15.8.7" type="device">
  <diagram id="1IEk_Nb3fTFsxIXIZDjR" name="Page-1">
    <mxGraphModel dx="1687" dy="1292" grid="1" gridSize="10" guides="1" tooltips="1" connect="1" arrows="1" fold="1" page="0" pageScale="1" pageWidth="850" pageHeight="1100" math="1" shadow="0">
      <root>
        <mxCell id="0" />
        <mxCell id="1" parent="0" />
        <mxCell id="m_n6-F-YFGLFjy7Y0JU2-11" value="" style="rounded=1;whiteSpace=wrap;html=1;fontSize=8;fillColor=#f5f5f5;fontColor=#333333;strokeColor=#666666;" parent="1" vertex="1">
          <mxGeometry x="-400" y="80" width="320" height="80" as="geometry" />
        </mxCell>
        <mxCell id="oWM7RPTnSrJb3YP9Nrb4-1" value="&amp;nbsp;(Mock) PhysicalTwin" style="shape=folder;fontStyle=1;spacingTop=10;tabWidth=40;tabHeight=14;tabPosition=left;html=1;verticalAlign=top;align=left;fillColor=#f8cecc;strokeColor=#b85450;" parent="1" vertex="1">
          <mxGeometry x="-400" y="-90" width="410" height="160" as="geometry" />
        </mxCell>
        <mxCell id="oWM7RPTnSrJb3YP9Nrb4-2" value="DigitalTwin" style="shape=folder;fontStyle=1;spacingTop=10;tabWidth=40;tabHeight=14;tabPosition=left;html=1;verticalAlign=top;align=left;fillColor=#d5e8d4;strokeColor=#82b366;" parent="1" vertex="1">
          <mxGeometry x="20" y="-90" width="460" height="180" as="geometry" />
        </mxCell>
        <mxCell id="oWM7RPTnSrJb3YP9Nrb4-9" value="" style="rounded=0;orthogonalLoop=1;jettySize=auto;html=1;endArrow=none;endFill=0;sketch=0;sourcePerimeterSpacing=0;targetPerimeterSpacing=0;exitX=1;exitY=0.5;exitDx=0;exitDy=0;" parent="1" source="OyYLRLAsNLPhuQtMTE0q-3" target="oWM7RPTnSrJb3YP9Nrb4-11" edge="1">
          <mxGeometry relative="1" as="geometry">
            <mxPoint x="90" y="85" as="sourcePoint" />
          </mxGeometry>
        </mxCell>
        <mxCell id="oWM7RPTnSrJb3YP9Nrb4-10" value="" style="rounded=0;orthogonalLoop=1;jettySize=auto;html=1;endArrow=halfCircle;endFill=0;entryX=0.5;entryY=0.5;endSize=6;strokeWidth=1;sketch=0;" parent="1" source="OyYLRLAsNLPhuQtMTE0q-1" target="oWM7RPTnSrJb3YP9Nrb4-11" edge="1">
          <mxGeometry relative="1" as="geometry">
            <mxPoint x="-160" y="10" as="sourcePoint" />
          </mxGeometry>
        </mxCell>
        <mxCell id="oWM7RPTnSrJb3YP9Nrb4-11" value="" style="ellipse;whiteSpace=wrap;html=1;align=center;aspect=fixed;resizable=0;points=[];outlineConnect=0;sketch=0;" parent="1" vertex="1">
          <mxGeometry x="-200" width="10" height="10" as="geometry" />
        </mxCell>
        <mxCell id="oWM7RPTnSrJb3YP9Nrb4-12" value="low_level_driver_server" style="text;html=1;strokeColor=none;fillColor=none;align=center;verticalAlign=middle;whiteSpace=wrap;rounded=0;" parent="1" vertex="1">
          <mxGeometry x="-221" y="42.5" width="135" height="20" as="geometry" />
        </mxCell>
        <mxCell id="oWM7RPTnSrJb3YP9Nrb4-13" value="&amp;lt;&amp;lt;MessageExchange&amp;gt;&amp;gt;&lt;br&gt;&lt;b&gt;RabbitMQ&lt;/b&gt;" style="html=1;dropTarget=0;" parent="1" vertex="1">
          <mxGeometry x="200" y="115" width="190" height="35" as="geometry" />
        </mxCell>
        <mxCell id="oWM7RPTnSrJb3YP9Nrb4-14" value="" style="shape=module;jettyWidth=8;jettyHeight=4;" parent="oWM7RPTnSrJb3YP9Nrb4-13" vertex="1">
          <mxGeometry x="1" width="20" height="20" relative="1" as="geometry">
            <mxPoint x="-27" y="7" as="offset" />
          </mxGeometry>
        </mxCell>
        <mxCell id="oWM7RPTnSrJb3YP9Nrb4-17" value="«TimeSeriesDB»&lt;br&gt;&lt;b&gt;InfluxDB&lt;/b&gt;" style="html=1;dropTarget=0;" parent="1" vertex="1">
          <mxGeometry x="220" y="-136" width="162.5" height="36" as="geometry" />
        </mxCell>
        <mxCell id="oWM7RPTnSrJb3YP9Nrb4-18" value="" style="shape=module;jettyWidth=8;jettyHeight=4;" parent="oWM7RPTnSrJb3YP9Nrb4-17" vertex="1">
          <mxGeometry x="1" width="20" height="20" relative="1" as="geometry">
            <mxPoint x="-27" y="7" as="offset" />
          </mxGeometry>
        </mxCell>
        <mxCell id="oWM7RPTnSrJb3YP9Nrb4-21" value="" style="shape=providedRequiredInterface;html=1;verticalLabelPosition=bottom;sketch=0;rotation=-92.4;" parent="1" vertex="1">
          <mxGeometry x="285" y="63" width="20" height="20" as="geometry" />
        </mxCell>
        <mxCell id="oWM7RPTnSrJb3YP9Nrb4-22" value="" style="endArrow=none;html=1;rounded=0;entryX=0;entryY=0.5;entryDx=0;entryDy=0;entryPerimeter=0;exitX=0.5;exitY=0;exitDx=0;exitDy=0;" parent="1" target="oWM7RPTnSrJb3YP9Nrb4-21" edge="1">
          <mxGeometry width="50" height="50" relative="1" as="geometry">
            <mxPoint x="295" y="114" as="sourcePoint" />
            <mxPoint x="70" y="-37" as="targetPoint" />
          </mxGeometry>
        </mxCell>
        <mxCell id="oWM7RPTnSrJb3YP9Nrb4-23" value="" style="shape=providedRequiredInterface;html=1;verticalLabelPosition=bottom;sketch=0;rotation=90;" parent="1" vertex="1">
          <mxGeometry x="291.25" y="-57" width="20" height="20" as="geometry" />
        </mxCell>
        <mxCell id="oWM7RPTnSrJb3YP9Nrb4-24" value="" style="endArrow=none;html=1;rounded=0;entryX=0;entryY=0.5;entryDx=0;entryDy=0;entryPerimeter=0;" parent="1" source="oWM7RPTnSrJb3YP9Nrb4-17" target="oWM7RPTnSrJb3YP9Nrb4-23" edge="1">
          <mxGeometry width="50" height="50" relative="1" as="geometry">
            <mxPoint x="20" y="80" as="sourcePoint" />
            <mxPoint x="70" y="30" as="targetPoint" />
          </mxGeometry>
        </mxCell>
        <mxCell id="oWM7RPTnSrJb3YP9Nrb4-28" value="" style="endArrow=none;html=1;rounded=0;entryX=0.5;entryY=0;entryDx=0;entryDy=0;exitX=1;exitY=0.5;exitDx=0;exitDy=0;exitPerimeter=0;" parent="1" source="oWM7RPTnSrJb3YP9Nrb4-23" target="OyYLRLAsNLPhuQtMTE0q-5" edge="1">
          <mxGeometry width="50" height="50" relative="1" as="geometry">
            <mxPoint x="191.25" y="-77" as="sourcePoint" />
            <mxPoint x="191.25" y="-57" as="targetPoint" />
          </mxGeometry>
        </mxCell>
        <mxCell id="oWM7RPTnSrJb3YP9Nrb4-29" value="" style="endArrow=none;html=1;rounded=0;entryX=1;entryY=0.5;entryDx=0;entryDy=0;exitX=0.5;exitY=1;exitDx=0;exitDy=0;entryPerimeter=0;" parent="1" source="OyYLRLAsNLPhuQtMTE0q-5" target="oWM7RPTnSrJb3YP9Nrb4-21" edge="1">
          <mxGeometry width="50" height="50" relative="1" as="geometry">
            <mxPoint x="191.25" y="-37" as="sourcePoint" />
            <mxPoint x="155" y="-7" as="targetPoint" />
          </mxGeometry>
        </mxCell>
        <mxCell id="oWM7RPTnSrJb3YP9Nrb4-33" value="" style="endArrow=none;html=1;rounded=0;entryX=1;entryY=0.5;entryDx=0;entryDy=0;entryPerimeter=0;exitX=0.5;exitY=1;exitDx=0;exitDy=0;" parent="1" source="OyYLRLAsNLPhuQtMTE0q-7" target="oWM7RPTnSrJb3YP9Nrb4-21" edge="1">
          <mxGeometry width="50" height="50" relative="1" as="geometry">
            <mxPoint x="262.4974567230281" y="38" as="sourcePoint" />
            <mxPoint x="105" y="-12" as="targetPoint" />
          </mxGeometry>
        </mxCell>
        <mxCell id="oWM7RPTnSrJb3YP9Nrb4-34" value="" style="endArrow=none;html=1;rounded=0;entryX=1;entryY=0.5;entryDx=0;entryDy=0;entryPerimeter=0;exitX=0.5;exitY=0;exitDx=0;exitDy=0;" parent="1" source="OyYLRLAsNLPhuQtMTE0q-7" target="oWM7RPTnSrJb3YP9Nrb4-23" edge="1">
          <mxGeometry width="50" height="50" relative="1" as="geometry">
            <mxPoint x="262.7631578947369" y="-22" as="sourcePoint" />
            <mxPoint x="190.83124346270802" y="103.0087716990115" as="targetPoint" />
          </mxGeometry>
        </mxCell>
        <mxCell id="oWM7RPTnSrJb3YP9Nrb4-37" value="" style="endArrow=none;html=1;rounded=0;entryX=1;entryY=0.5;entryDx=0;entryDy=0;entryPerimeter=0;exitX=0.5;exitY=1;exitDx=0;exitDy=0;" parent="1" source="OyYLRLAsNLPhuQtMTE0q-11" target="oWM7RPTnSrJb3YP9Nrb4-21" edge="1">
          <mxGeometry width="50" height="50" relative="1" as="geometry">
            <mxPoint x="352.5" y="38" as="sourcePoint" />
            <mxPoint x="190.83124346270802" y="103.0087716990115" as="targetPoint" />
          </mxGeometry>
        </mxCell>
        <mxCell id="oWM7RPTnSrJb3YP9Nrb4-38" value="" style="endArrow=none;html=1;rounded=0;entryX=0.5;entryY=0;entryDx=0;entryDy=0;exitX=1;exitY=0.5;exitDx=0;exitDy=0;exitPerimeter=0;" parent="1" source="oWM7RPTnSrJb3YP9Nrb4-23" target="OyYLRLAsNLPhuQtMTE0q-11" edge="1">
          <mxGeometry width="50" height="50" relative="1" as="geometry">
            <mxPoint x="330" y="45.063740085160816" as="sourcePoint" />
            <mxPoint x="352.5" y="-22" as="targetPoint" />
          </mxGeometry>
        </mxCell>
        <mxCell id="oWM7RPTnSrJb3YP9Nrb4-44" value="" style="endArrow=none;html=1;rounded=0;entryX=1;entryY=0.5;entryDx=0;entryDy=0;exitX=0.5;exitY=1;exitDx=0;exitDy=0;entryPerimeter=0;" parent="1" source="OyYLRLAsNLPhuQtMTE0q-1" target="oWM7RPTnSrJb3YP9Nrb4-21" edge="1">
          <mxGeometry width="50" height="50" relative="1" as="geometry">
            <mxPoint x="-75" y="70" as="sourcePoint" />
            <mxPoint x="195" y="40" as="targetPoint" />
          </mxGeometry>
        </mxCell>
        <mxCell id="oWM7RPTnSrJb3YP9Nrb4-45" value="&lt;h1&gt;Digital Twin Structure&lt;/h1&gt;" style="text;html=1;strokeColor=none;fillColor=none;spacing=5;spacingTop=-20;whiteSpace=wrap;overflow=hidden;rounded=0;" parent="1" vertex="1">
          <mxGeometry x="-400" y="-280" width="640" height="80" as="geometry" />
        </mxCell>
        <mxCell id="OyYLRLAsNLPhuQtMTE0q-1" value="&lt;p style=&quot;margin: 6px 0px 0px ; text-align: center ; font-size: 11px&quot;&gt;&lt;font style=&quot;font-size: 11px&quot;&gt;&lt;b&gt;Controller&lt;br&gt;&lt;/b&gt;&lt;/font&gt;&lt;/p&gt;&lt;hr style=&quot;font-size: 11px&quot;&gt;&lt;p style=&quot;margin: 0px 0px 0px 8px ; font-size: 11px&quot;&gt;&lt;br&gt;&lt;/p&gt;" style="align=left;overflow=fill;html=1;dropTarget=0;fontSize=8;" parent="1" vertex="1">
          <mxGeometry x="-160" y="-26.25" width="160" height="62.5" as="geometry" />
        </mxCell>
        <mxCell id="OyYLRLAsNLPhuQtMTE0q-2" value="" style="shape=component;jettyWidth=8;jettyHeight=4;fontSize=8;" parent="OyYLRLAsNLPhuQtMTE0q-1" vertex="1">
          <mxGeometry x="1" width="20" height="20" relative="1" as="geometry">
            <mxPoint x="-24" y="4" as="offset" />
          </mxGeometry>
        </mxCell>
        <mxCell id="OyYLRLAsNLPhuQtMTE0q-3" value="&lt;p style=&quot;margin: 6px 0px 0px ; text-align: center ; font-size: 13px&quot;&gt;&lt;font style=&quot;font-size: 13px&quot;&gt;&lt;b&gt;Plant&lt;br&gt;&lt;/b&gt;&lt;/font&gt;&lt;/p&gt;&lt;hr style=&quot;font-size: 13px&quot;&gt;&lt;p style=&quot;margin: 0px 0px 0px 8px ; font-size: 13px&quot;&gt;&lt;font style=&quot;font-size: 13px&quot;&gt;&lt;font style=&quot;font-size: 13px&quot;&gt;&lt;b&gt;+ T: Int&lt;span style=&quot;white-space: pre&quot;&gt; &lt;/span&gt;# Air temperature&lt;br&gt;+ heater_on: Bool&amp;nbsp;&lt;/b&gt;&lt;/font&gt;&lt;/font&gt;&lt;/p&gt;&lt;p style=&quot;margin: 0px 0px 0px 8px ; font-size: 13px&quot;&gt;&lt;font style=&quot;font-size: 13px&quot;&gt;&lt;b&gt;# Status of heater&lt;/b&gt;&lt;/font&gt;&lt;/p&gt;" style="align=left;overflow=fill;html=1;dropTarget=0;fontSize=8;" parent="1" vertex="1">
          <mxGeometry x="-392.5" y="-42.5" width="170" height="95" as="geometry" />
        </mxCell>
        <mxCell id="OyYLRLAsNLPhuQtMTE0q-4" value="" style="shape=component;jettyWidth=8;jettyHeight=4;fontSize=8;" parent="OyYLRLAsNLPhuQtMTE0q-3" vertex="1">
          <mxGeometry x="1" width="20" height="20" relative="1" as="geometry">
            <mxPoint x="-24" y="4" as="offset" />
          </mxGeometry>
        </mxCell>
        <mxCell id="OyYLRLAsNLPhuQtMTE0q-5" value="&lt;p style=&quot;margin: 6px 0px 0px ; text-align: center ; font-size: 10px&quot;&gt;&lt;font style=&quot;font-size: 10px&quot;&gt;&lt;b&gt;KalmanFilter&lt;br&gt;&lt;/b&gt;&lt;/font&gt;&lt;/p&gt;&lt;hr style=&quot;font-size: 10px&quot;&gt;&lt;p style=&quot;margin: 0px 0px 0px 8px ; font-size: 10px&quot;&gt;&lt;font style=&quot;font-size: 10px&quot;&gt;&lt;b&gt;Estimates full Plant state&amp;nbsp;&lt;/b&gt;&lt;/font&gt;&lt;/p&gt;&lt;p style=&quot;margin: 0px 0px 0px 8px ; font-size: 10px&quot;&gt;&lt;font style=&quot;font-size: 10px&quot;&gt;&lt;b&gt;(T and T_heater)&lt;/b&gt;&lt;/font&gt;&lt;/p&gt;" style="align=left;overflow=fill;html=1;dropTarget=0;fontSize=8;" parent="1" vertex="1">
          <mxGeometry x="30" y="-19.5" width="140" height="55" as="geometry" />
        </mxCell>
        <mxCell id="OyYLRLAsNLPhuQtMTE0q-6" value="" style="shape=component;jettyWidth=8;jettyHeight=4;fontSize=8;" parent="OyYLRLAsNLPhuQtMTE0q-5" vertex="1">
          <mxGeometry x="1" width="20" height="20" relative="1" as="geometry">
            <mxPoint x="-24" y="4" as="offset" />
          </mxGeometry>
        </mxCell>
        <mxCell id="OyYLRLAsNLPhuQtMTE0q-7" value="&lt;p style=&quot;margin: 6px 0px 0px ; text-align: center&quot;&gt;&lt;font style=&quot;font-size: 8px&quot;&gt;&lt;b&gt;SelfAdaptationManager&lt;br&gt;&lt;/b&gt;&lt;/font&gt;&lt;/p&gt;&lt;hr&gt;&lt;p style=&quot;text-align: center ; margin: 0px 0px 0px 8px ; font-size: 11px&quot;&gt;&lt;font style=&quot;font-size: 11px&quot;&gt;&lt;b&gt;Implements the&amp;nbsp;&lt;/b&gt;&lt;/font&gt;&lt;/p&gt;&lt;p style=&quot;text-align: center ; margin: 0px 0px 0px 8px ; font-size: 11px&quot;&gt;&lt;font style=&quot;font-size: 11px&quot;&gt;&lt;b&gt;self adaptation loop&lt;/b&gt;&lt;/font&gt;&lt;/p&gt;" style="align=left;overflow=fill;html=1;dropTarget=0;fontSize=8;" parent="1" vertex="1">
          <mxGeometry x="180" y="-19.5" width="140" height="55" as="geometry" />
        </mxCell>
        <mxCell id="OyYLRLAsNLPhuQtMTE0q-8" value="" style="shape=component;jettyWidth=8;jettyHeight=4;fontSize=8;" parent="OyYLRLAsNLPhuQtMTE0q-7" vertex="1">
          <mxGeometry x="1" width="20" height="20" relative="1" as="geometry">
            <mxPoint x="-24" y="4" as="offset" />
          </mxGeometry>
        </mxCell>
        <mxCell id="OyYLRLAsNLPhuQtMTE0q-11" value="&lt;p style=&quot;margin: 6px 0px 0px ; text-align: center ; font-size: 9px&quot;&gt;&lt;font style=&quot;font-size: 9px&quot;&gt;&lt;b&gt;InfluxDataRecorder&lt;br&gt;&lt;/b&gt;&lt;/font&gt;&lt;/p&gt;&lt;hr style=&quot;font-size: 9px&quot;&gt;&lt;p style=&quot;text-align: justify ; margin: 0px 0px 0px 8px ; font-size: 9px&quot;&gt;&lt;font style=&quot;font-size: 9px&quot;&gt;&lt;b&gt;Convenience service to record&amp;nbsp;&lt;/b&gt;&lt;/font&gt;&lt;/p&gt;&lt;p style=&quot;text-align: justify ; margin: 0px 0px 0px 8px ; font-size: 9px&quot;&gt;&lt;font style=&quot;font-size: 9px&quot;&gt;&lt;b&gt;all state messages into DB&lt;/b&gt;&lt;/font&gt;&lt;/p&gt;" style="align=left;overflow=fill;html=1;dropTarget=0;fontSize=8;" parent="1" vertex="1">
          <mxGeometry x="330" y="-19.5" width="140" height="55" as="geometry" />
        </mxCell>
        <mxCell id="OyYLRLAsNLPhuQtMTE0q-12" value="" style="shape=component;jettyWidth=8;jettyHeight=4;fontSize=8;" parent="OyYLRLAsNLPhuQtMTE0q-11" vertex="1">
          <mxGeometry x="1" width="20" height="20" relative="1" as="geometry">
            <mxPoint x="-24" y="4" as="offset" />
          </mxGeometry>
        </mxCell>
        <mxCell id="m_n6-F-YFGLFjy7Y0JU2-1" value="Legend:" style="text;html=1;strokeColor=none;fillColor=none;align=left;verticalAlign=middle;whiteSpace=wrap;rounded=0;fontStyle=1;spacing=6;" parent="1" vertex="1">
          <mxGeometry x="-400" y="80" width="80" height="30" as="geometry" />
        </mxCell>
        <mxCell id="m_n6-F-YFGLFjy7Y0JU2-2" value="&lt;p style=&quot;margin: 6px 0px 0px ; text-align: center ; font-size: 9px&quot;&gt;&lt;font style=&quot;font-size: 9px&quot;&gt;&lt;b&gt;Component&lt;br&gt;&lt;/b&gt;&lt;/font&gt;&lt;/p&gt;&lt;hr style=&quot;font-size: 9px&quot;&gt;&lt;p style=&quot;margin: 0px 0px 0px 8px ; font-size: 9px&quot;&gt;&lt;font style=&quot;font-size: 9px&quot;&gt;&lt;b&gt;Main variables, or responsibility.&lt;/b&gt;&lt;/font&gt;&lt;/p&gt;" style="align=left;overflow=fill;html=1;dropTarget=0;fontSize=8;" parent="1" vertex="1">
          <mxGeometry x="-377.5" y="110" width="140" height="40" as="geometry" />
        </mxCell>
        <mxCell id="m_n6-F-YFGLFjy7Y0JU2-3" value="" style="shape=component;jettyWidth=8;jettyHeight=4;fontSize=8;" parent="m_n6-F-YFGLFjy7Y0JU2-2" vertex="1">
          <mxGeometry x="1" width="20" height="20" relative="1" as="geometry">
            <mxPoint x="-24" y="4" as="offset" />
          </mxGeometry>
        </mxCell>
        <mxCell id="m_n6-F-YFGLFjy7Y0JU2-4" value="" style="shape=providedRequiredInterface;html=1;verticalLabelPosition=bottom;sketch=0;rotation=0;" parent="1" vertex="1">
          <mxGeometry x="-163.5" y="120" width="20" height="20" as="geometry" />
        </mxCell>
        <mxCell id="m_n6-F-YFGLFjy7Y0JU2-5" value="&lt;font style=&quot;font-size: 10px&quot;&gt;&lt;b&gt;interface provided&lt;/b&gt;&lt;/font&gt;" style="text;html=1;strokeColor=none;fillColor=none;align=left;verticalAlign=middle;whiteSpace=wrap;rounded=0;fontStyle=0;fontSize=8;" parent="1" vertex="1">
          <mxGeometry x="-222.5" y="115" width="40" height="30" as="geometry" />
        </mxCell>
        <mxCell id="m_n6-F-YFGLFjy7Y0JU2-6" value="&lt;font style=&quot;font-size: 10px&quot;&gt;&lt;b&gt;interface required&lt;/b&gt;&lt;/font&gt;" style="text;html=1;strokeColor=none;fillColor=none;align=left;verticalAlign=middle;whiteSpace=wrap;rounded=0;fontStyle=0;fontSize=8;" parent="1" vertex="1">
          <mxGeometry x="-127.5" y="115" width="50" height="30" as="geometry" />
        </mxCell>
        <mxCell id="m_n6-F-YFGLFjy7Y0JU2-8" value="" style="endArrow=none;html=1;rounded=0;fontSize=8;exitX=1;exitY=0.5;exitDx=0;exitDy=0;exitPerimeter=0;" parent="1" source="m_n6-F-YFGLFjy7Y0JU2-4" target="m_n6-F-YFGLFjy7Y0JU2-6" edge="1">
          <mxGeometry width="50" height="50" relative="1" as="geometry">
            <mxPoint x="112.5" y="120" as="sourcePoint" />
            <mxPoint x="162.5" y="70" as="targetPoint" />
          </mxGeometry>
        </mxCell>
        <mxCell id="m_n6-F-YFGLFjy7Y0JU2-9" value="" style="endArrow=none;html=1;rounded=0;fontSize=8;" parent="1" source="m_n6-F-YFGLFjy7Y0JU2-4" target="m_n6-F-YFGLFjy7Y0JU2-5" edge="1">
          <mxGeometry width="50" height="50" relative="1" as="geometry">
            <mxPoint x="112.5" y="120" as="sourcePoint" />
            <mxPoint x="162.5" y="70" as="targetPoint" />
          </mxGeometry>
        </mxCell>
        <mxCell id="qigjusSWMFG9rdPJxevz-1" value="" style="endArrow=none;dashed=1;html=1;rounded=0;" parent="1" source="oWM7RPTnSrJb3YP9Nrb4-12" target="oWM7RPTnSrJb3YP9Nrb4-11" edge="1">
          <mxGeometry width="50" height="50" relative="1" as="geometry">
            <mxPoint x="70" y="100" as="sourcePoint" />
            <mxPoint x="120" y="50" as="targetPoint" />
          </mxGeometry>
        </mxCell>
      </root>
    </mxGraphModel>
  </diagram>
</mxfile>
